<svg width="306" height="55" viewBox="0 0 306 55" fill="none" xmlns="http://www.w3.org/2000/svg">
<g filter="url(#filter0_d)">
<path d="M45.8711 4.35938C45.3672 5.09766 44.8047 5.98242 44.1836 7.01367C43.5625 8.04492 42.9004 9.19922 42.1973 10.4766C41.5996 11.543 41.0078 12.6797 40.4219 13.8867C39.8477 15.082 39.2969 16.2715 38.7695 17.4551C38.2422 18.627 37.7559 19.7578 37.3105 20.8477C36.8652 21.9258 36.4785 22.8809 36.1504 23.7129C35.8223 24.5332 35.5645 25.1953 35.377 25.6992C35.1895 26.1914 35.0957 26.4434 35.0957 26.4551C34.9785 26.748 34.7676 26.8945 34.4629 26.8945C34.3105 26.8945 34.1758 26.8477 34.0586 26.7539C33.9414 26.6484 33.8652 26.5195 33.8301 26.3672C33.8301 26.3555 33.7715 26.1094 33.6543 25.6289C33.5488 25.1367 33.4023 24.4863 33.2148 23.6777C33.0273 22.8574 32.8105 21.9199 32.5645 20.8652C32.3301 19.7988 32.0781 18.6914 31.8086 17.543C31.5508 16.3828 31.2871 15.2109 31.0176 14.0273C30.748 12.8438 30.4961 11.7188 30.2617 10.6523C29.4766 12.8672 28.6855 14.8301 27.8887 16.541C27.1035 18.2402 26.2949 19.7227 25.4629 20.9883C24.6309 22.2422 23.7695 23.2969 22.8789 24.1523C22 25.0078 21.0742 25.6992 20.1016 26.2266C19.1406 26.7422 18.127 27.1113 17.0605 27.334C16.0059 27.5566 14.8867 27.668 13.7031 27.668C13.0938 27.668 12.4434 27.5977 11.752 27.457C11.0605 27.3281 10.375 27.123 9.69531 26.8418C9.01562 26.5605 8.36523 26.209 7.74414 25.7871C7.12305 25.3652 6.57227 24.8672 6.0918 24.293C5.61133 23.707 5.23047 23.0508 4.94922 22.3242C4.66797 21.5859 4.52734 20.7656 4.52734 19.8633C4.52734 18.9141 4.72656 18.0469 5.125 17.2617C5.52344 16.4648 6.0625 15.7852 6.74219 15.2227C7.42188 14.6484 8.20703 14.2031 9.09766 13.8867C10 13.5703 10.9492 13.4121 11.9453 13.4121C12.6719 13.4121 13.3223 13.4766 13.8965 13.6055C14.4824 13.7227 14.998 13.875 15.4434 14.0625C15.8887 14.25 16.2695 14.4551 16.5859 14.6777C16.9023 14.9004 17.166 15.1055 17.377 15.293C17.5879 15.4805 17.7402 15.6445 17.834 15.7852C17.9277 15.9141 17.9805 15.9785 17.9922 15.9785C18.0625 16.1074 18.0977 16.2305 18.0977 16.3477C18.0977 16.5117 18.0332 16.6641 17.9043 16.8047C17.7871 16.9453 17.6289 17.0156 17.4297 17.0156C17.1953 17.0156 17.0078 16.916 16.8672 16.7168C16.8555 16.7051 16.7617 16.5996 16.5859 16.4004C16.4102 16.1895 16.123 15.9609 15.7246 15.7148C15.3262 15.4688 14.8105 15.2461 14.1777 15.0469C13.5566 14.8477 12.7949 14.748 11.8926 14.748C11.0723 14.748 10.293 14.877 9.55469 15.1348C8.82812 15.3809 8.18945 15.7324 7.63867 16.1895C7.09961 16.6465 6.66602 17.1914 6.33789 17.8242C6.02148 18.4453 5.86328 19.1309 5.86328 19.8809C5.86328 20.6191 5.98633 21.293 6.23242 21.9023C6.47852 22.5117 6.80664 23.0566 7.2168 23.5371C7.62695 24.0176 8.10156 24.4336 8.64062 24.7852C9.17969 25.1367 9.74219 25.4297 10.3281 25.6641C10.9141 25.8867 11.5 26.0566 12.0859 26.1738C12.6836 26.2793 13.2461 26.332 13.7734 26.332C14.6641 26.332 15.5312 26.2676 16.375 26.1387C17.2305 25.998 18.0684 25.7402 18.8887 25.3652C19.7207 24.9902 20.5352 24.4746 21.332 23.8184C22.1289 23.1621 22.9199 22.3066 23.7051 21.252C24.4902 20.1973 25.2637 18.9258 26.0254 17.4375C26.7988 15.9492 27.5723 14.1914 28.3457 12.1641C28.5801 11.5547 28.8086 10.8984 29.0312 10.1953C29.2539 9.49219 29.4824 8.7832 29.7168 8.06836C29.5176 7.03711 29.3711 6.1582 29.2773 5.43164C29.1953 4.70508 29.1543 4.10156 29.1543 3.62109C29.1543 3.10547 29.1953 2.69531 29.2773 2.39062C29.3594 2.08594 29.4648 1.85742 29.5938 1.70508C29.7227 1.54102 29.8633 1.44141 30.0156 1.40625C30.168 1.35937 30.3145 1.33594 30.4551 1.33594C30.5723 1.33594 30.7012 1.35937 30.8418 1.40625C30.9941 1.45313 31.1289 1.55859 31.2461 1.72266C31.375 1.875 31.4805 2.10352 31.5625 2.4082C31.6445 2.71289 31.6855 3.12305 31.6855 3.63867C31.6855 4.20117 31.6328 4.85156 31.5273 5.58984C31.4219 6.32812 31.2637 7.14258 31.0527 8.0332C31.2051 8.74805 31.3809 9.54492 31.5801 10.4238C31.7793 11.3027 31.9844 12.2168 32.1953 13.166C32.4062 14.1035 32.623 15.0645 32.8457 16.0488C33.0684 17.0332 33.2852 17.9941 33.4961 18.9316C33.707 19.8691 33.9062 20.7656 34.0938 21.6211C34.293 22.4766 34.4746 23.25 34.6387 23.9414C34.9551 23.1445 35.3418 22.1836 35.7988 21.0586C36.2559 19.9219 36.7656 18.7207 37.3281 17.4551C37.8906 16.1777 38.4824 14.8828 39.1035 13.5703C39.7363 12.2461 40.3809 10.998 41.0371 9.82617C41.9629 8.16211 42.8125 6.73828 43.5859 5.55469C44.3594 4.35938 45.0273 3.375 45.5898 2.60156C46.1523 1.82812 46.5918 1.25977 46.9082 0.896484C47.2363 0.521484 47.4121 0.316406 47.4355 0.28125C47.5645 0.152344 47.7227 0.0878906 47.9102 0.0878906C48.1094 0.0878906 48.2676 0.158203 48.3848 0.298828C48.5137 0.427734 48.5781 0.580078 48.5781 0.755859C48.5781 0.837891 48.5605 0.919922 48.5254 1.00195C48.5254 1.01367 48.4551 1.18945 48.3145 1.5293C48.1855 1.85742 48.0156 2.31445 47.8047 2.90039C47.6055 3.47461 47.3828 4.1543 47.1367 4.93945C46.8906 5.71289 46.6504 6.55078 46.416 7.45312C46.1816 8.34375 45.9707 9.28125 45.7832 10.2656C45.6074 11.2383 45.4785 12.2109 45.3965 13.1836C45.3613 13.6289 45.332 14.0977 45.3086 14.5898C45.2852 15.0703 45.2734 15.5566 45.2734 16.0488C45.2734 16.8223 45.3086 17.6016 45.3789 18.3867C45.4492 19.1719 45.5664 19.9277 45.7305 20.6543C45.8945 21.3809 46.1172 22.0664 46.3984 22.7109C46.6797 23.3438 47.0254 23.9004 47.4355 24.3809C47.8457 24.8613 48.332 25.248 48.8945 25.541C49.4688 25.834 50.1309 25.9922 50.8809 26.0156C51.0684 26.0273 51.2148 26.1094 51.3203 26.2617C51.4375 26.4023 51.4961 26.5547 51.4961 26.7188C51.4961 26.8828 51.4316 27.0293 51.3027 27.1582C51.1738 27.2871 51.0215 27.3516 50.8457 27.3516C50.6582 27.3516 50.4707 27.334 50.2832 27.2988C49.4395 27.1816 48.6953 26.9414 48.0508 26.5781C47.4062 26.2031 46.8496 25.7461 46.3809 25.207C45.9121 24.6562 45.5195 24.0352 45.2031 23.3438C44.8984 22.6406 44.6523 21.8906 44.4648 21.0938C44.2773 20.2969 44.1426 19.4707 44.0605 18.6152C43.9902 17.748 43.9551 16.875 43.9551 15.9961C43.9551 14.9531 44.0078 13.9102 44.1133 12.8672C44.2188 11.8242 44.3594 10.8105 44.5352 9.82617C44.7109 8.83008 44.916 7.86914 45.1504 6.94336C45.3848 6.01758 45.625 5.15625 45.8711 4.35938ZM60.6191 25.0664C60.3262 25.0664 60.0684 25.043 59.8457 24.9961C59.6699 25.3477 59.459 25.6758 59.2129 25.9805C58.9668 26.2734 58.6797 26.5312 58.3516 26.7539C58.0352 26.9766 57.6777 27.1523 57.2793 27.2812C56.8809 27.4102 56.4473 27.4746 55.9785 27.4746C55.4277 27.4746 54.9238 27.375 54.4668 27.1758C54.0098 26.9883 53.6113 26.7246 53.2715 26.3848C52.9316 26.0332 52.668 25.6172 52.4805 25.1367C52.293 24.6445 52.1992 24.1055 52.1992 23.5195C52.1992 22.7695 52.334 22.1191 52.6035 21.5684C52.873 21.0059 53.1836 20.543 53.5352 20.1797C53.8867 19.8047 54.2383 19.5293 54.5898 19.3535C54.9414 19.166 55.2051 19.0723 55.3809 19.0723C55.5801 19.0723 55.7266 19.125 55.8203 19.2305C55.9258 19.3359 55.9785 19.4766 55.9785 19.6523C55.9785 19.8516 55.9141 20.0039 55.7852 20.1094C55.668 20.2031 55.5156 20.2969 55.3281 20.3906C55.1406 20.4844 54.9414 20.6191 54.7305 20.7949C54.5195 20.959 54.3203 21.1699 54.1328 21.4277C53.957 21.6855 53.8105 21.9902 53.6934 22.3418C53.5762 22.6934 53.5176 23.0859 53.5176 23.5195C53.5176 23.9062 53.5762 24.2695 53.6934 24.6094C53.8105 24.9375 53.9805 25.2246 54.2031 25.4707C54.4258 25.7051 54.6895 25.8926 54.9941 26.0332C55.2988 26.1621 55.6387 26.2266 56.0137 26.2266C56.6816 26.2266 57.2324 26.0742 57.666 25.7695C58.1113 25.4531 58.4512 25.0547 58.6855 24.5742C57.9941 24.2109 57.4258 23.6953 56.9805 23.0273C56.5352 22.3594 56.3125 21.6094 56.3125 20.7773C56.3125 20.1094 56.4707 19.5645 56.7871 19.1426C57.1152 18.7207 57.543 18.5098 58.0703 18.5098C58.3867 18.5098 58.6855 18.5859 58.9668 18.7383C59.248 18.8906 59.4941 19.1309 59.7051 19.459C59.9277 19.7871 60.1035 20.209 60.2324 20.7246C60.3613 21.2402 60.4258 21.8555 60.4258 22.5703C60.4258 22.9453 60.3789 23.3379 60.2852 23.748C60.3555 23.7598 60.4258 23.7656 60.4961 23.7656C60.5664 23.7656 60.6426 23.7656 60.7246 23.7656C61.123 23.7656 61.4805 23.7188 61.7969 23.625C62.1133 23.5312 62.4004 23.3906 62.6582 23.2031C62.916 23.0156 63.1445 22.7754 63.3438 22.4824C63.5547 22.1895 63.7539 21.8496 63.9414 21.4629C63.9766 21.3926 64.0527 21.3281 64.1699 21.2695C64.2871 21.1992 64.4043 21.1641 64.5215 21.1641C64.6738 21.1641 64.8145 21.2285 64.9434 21.3574C65.084 21.4746 65.1543 21.6328 65.1543 21.832C65.1543 21.9258 65.1309 22.0312 65.084 22.1484C65.0371 22.2539 64.9902 22.3535 64.9434 22.4473C64.7441 22.7988 64.5098 23.1387 64.2402 23.4668C63.9824 23.7832 63.6719 24.0645 63.3086 24.3105C62.957 24.5449 62.5586 24.7324 62.1133 24.873C61.668 25.0137 61.1699 25.0781 60.6191 25.0664ZM57.6133 20.6367C57.6133 20.8594 57.6426 21.0938 57.7012 21.3398C57.7598 21.5859 57.8477 21.832 57.9648 22.0781C58.0938 22.3125 58.2461 22.541 58.4219 22.7637C58.6094 22.9746 58.8262 23.1562 59.0723 23.3086C59.1074 23.0625 59.125 22.8223 59.125 22.5879C59.125 22.2715 59.1016 21.9492 59.0547 21.6211C59.0078 21.293 58.9375 20.9941 58.8438 20.7246C58.7617 20.4434 58.6562 20.2207 58.5273 20.0566C58.3984 19.8809 58.2461 19.793 58.0703 19.793C58 19.793 57.9062 19.8457 57.7891 19.9512C57.6719 20.0566 57.6133 20.2852 57.6133 20.6367ZM65.752 19.7754C65.7051 20.0918 65.6465 20.3906 65.5762 20.6719C65.5059 20.9414 65.4355 21.1816 65.3652 21.3926C65.3066 21.5918 65.2539 21.7559 65.207 21.8848C65.1602 22.0137 65.1309 22.084 65.1191 22.0957C65.002 22.3652 64.7969 22.5 64.5039 22.5C64.3398 22.5 64.1875 22.4414 64.0469 22.3242C63.9062 22.1953 63.8359 22.0371 63.8359 21.8496C63.8359 21.7793 63.8477 21.7266 63.8711 21.6914C63.8945 21.6562 63.9297 21.5859 63.9766 21.4805C64.0234 21.375 64.082 21.1992 64.1523 20.9531C64.2227 20.707 64.3105 20.3262 64.416 19.8105C64.2168 19.8105 64.0117 19.8047 63.8008 19.793C63.5898 19.7812 63.3965 19.7402 63.2207 19.6699C63.0332 19.5996 62.8809 19.4883 62.7637 19.3359C62.6465 19.1836 62.5879 18.9727 62.5879 18.7031C62.5879 18.5039 62.6465 18.2344 62.7637 17.8945C62.8691 17.5547 63.0156 17.2207 63.2031 16.8926C63.3906 16.5645 63.6016 16.2832 63.8359 16.0488C64.0703 15.8027 64.3047 15.6797 64.5391 15.6797C64.8086 15.6797 65.0254 15.7793 65.1895 15.9785C65.3652 16.1777 65.5 16.4238 65.5938 16.7168C65.6875 16.998 65.752 17.2969 65.7871 17.6133C65.834 17.9297 65.8574 18.2051 65.8574 18.4395C66.0566 18.4395 66.25 18.4395 66.4375 18.4395C66.6367 18.4277 66.8242 18.4219 67 18.4219C67.668 18.4219 68.1777 18.5684 68.5293 18.8613C68.8809 19.1543 69.0566 19.6348 69.0566 20.3027C69.0566 20.5723 69.0391 20.8535 69.0039 21.1465C68.9688 21.4395 68.9277 21.7441 68.8809 22.0605C68.834 22.3652 68.793 22.6699 68.7578 22.9746C68.7227 23.2793 68.7051 23.5781 68.7051 23.8711C68.7051 24.293 68.7637 24.6445 68.8809 24.9258C68.998 25.1953 69.1445 25.4121 69.3203 25.5762C69.4961 25.7402 69.6836 25.8574 69.8828 25.9277C70.082 25.9863 70.2637 26.0156 70.4277 26.0156C70.9316 26.0156 71.4062 25.8516 71.8516 25.5234C72.2969 25.1953 72.707 24.8027 73.082 24.3457C73.457 23.877 73.791 23.3848 74.084 22.8691C74.3887 22.3535 74.6406 21.9023 74.8398 21.5156C74.8984 21.4102 74.9805 21.3281 75.0859 21.2695C75.1914 21.2109 75.3027 21.1816 75.4199 21.1816C75.6309 21.1816 75.7949 21.252 75.9121 21.3926C76.0293 21.5215 76.0879 21.668 76.0879 21.832C76.0879 21.9492 76.0645 22.0547 76.0176 22.1484C75.748 22.6289 75.4316 23.1738 75.0684 23.7832C74.7168 24.3809 74.3125 24.9434 73.8555 25.4707C73.3984 25.998 72.8828 26.4434 72.3086 26.8066C71.7461 27.1699 71.125 27.3516 70.4453 27.3516C70.0234 27.3516 69.625 27.2695 69.25 27.1055C68.875 26.9531 68.5469 26.7305 68.2656 26.4375C67.9961 26.1328 67.7793 25.7637 67.6152 25.3301C67.4512 24.8848 67.3691 24.3867 67.3691 23.8359C67.3691 23.25 67.4277 22.6699 67.5449 22.0957C67.6621 21.5098 67.7207 20.9531 67.7207 20.4258C67.7207 20.2031 67.668 20.0391 67.5625 19.9336C67.4688 19.8164 67.252 19.7578 66.9121 19.7578C66.748 19.7578 66.5664 19.7578 66.3672 19.7578C66.1797 19.7578 65.9746 19.7637 65.752 19.7754ZM64.5742 18.4746C64.5742 18.3926 64.5684 18.2871 64.5566 18.1582C64.5566 18.0176 64.5449 17.8828 64.5215 17.7539C64.5098 17.625 64.4863 17.5137 64.4512 17.4199C64.4277 17.3262 64.3984 17.2793 64.3633 17.2793C64.3281 17.2793 64.2812 17.3262 64.2227 17.4199C64.1758 17.502 64.123 17.6074 64.0645 17.7363C64.0059 17.8535 63.9531 17.9824 63.9062 18.123C63.8594 18.2637 63.8242 18.3809 63.8008 18.4746H64.5742ZM78.7422 25.418C78.9297 25.0312 79.1465 24.6094 79.3926 24.1523C79.6387 23.6836 79.9023 23.2148 80.1836 22.7461C80.4648 22.2656 80.7578 21.791 81.0625 21.3223C81.3789 20.8535 81.707 20.4082 82.0469 19.9863C82.3867 19.5762 82.7266 19.2832 83.0664 19.1074C83.418 18.9199 83.7461 18.8262 84.0508 18.8262C84.6602 18.8262 85.1113 19.0488 85.4043 19.4941C85.6973 19.9395 85.8438 20.4902 85.8438 21.1465C85.8438 21.2988 85.832 21.4863 85.8086 21.709C85.7969 21.9199 85.7793 22.1484 85.7559 22.3945C85.7441 22.6406 85.7266 22.8926 85.7031 23.1504C85.6914 23.3965 85.6855 23.6309 85.6855 23.8535C85.6855 24.1348 85.6973 24.4043 85.7207 24.6621C85.7559 24.9199 85.8145 25.1484 85.8965 25.3477C85.9785 25.5352 86.0957 25.6875 86.248 25.8047C86.4004 25.9102 86.5996 25.9629 86.8457 25.9629C87.291 25.9629 87.7246 25.793 88.1465 25.4531C88.5684 25.1016 88.9551 24.6914 89.3066 24.2227C89.6699 23.7422 89.9805 23.2559 90.2383 22.7637C90.5078 22.2715 90.707 21.873 90.8359 21.5684C90.8945 21.4395 90.9766 21.3398 91.082 21.2695C91.1992 21.1992 91.3223 21.1641 91.4512 21.1641C91.6504 21.1641 91.8086 21.2402 91.9258 21.3926C92.0547 21.5332 92.1191 21.6855 92.1191 21.8496C92.1191 21.9316 92.1016 22.0137 92.0664 22.0957C92.0195 22.1895 91.9258 22.3828 91.7852 22.6758C91.6445 22.9688 91.457 23.3086 91.2227 23.6953C91 24.0703 90.7363 24.4746 90.4316 24.9082C90.127 25.3301 89.7871 25.7168 89.4121 26.0684C89.0488 26.4199 88.6504 26.7129 88.2168 26.9473C87.7949 27.1816 87.3496 27.2988 86.8809 27.2988C86.3535 27.2988 85.9258 27.1992 85.5977 27C85.2695 26.7891 85.0117 26.5195 84.8242 26.1914C84.6367 25.8516 84.5078 25.4824 84.4375 25.084C84.3789 24.6738 84.3496 24.2637 84.3496 23.8535C84.3496 23.6777 84.3555 23.4785 84.3672 23.2559C84.3906 23.0332 84.4141 22.7988 84.4375 22.5527C84.4727 22.3066 84.4961 22.0605 84.5078 21.8145C84.5312 21.5684 84.543 21.334 84.543 21.1113C84.543 20.7363 84.4844 20.4844 84.3672 20.3555C84.25 20.2148 84.1445 20.1445 84.0508 20.1445C83.8633 20.1445 83.6465 20.2559 83.4004 20.4785C83.166 20.6895 82.9141 20.9707 82.6445 21.3223C82.3867 21.6738 82.1172 22.0723 81.8359 22.5176C81.5664 22.9512 81.3086 23.3848 81.0625 23.8184C80.8281 24.252 80.6055 24.668 80.3945 25.0664C80.1953 25.4531 80.0371 25.7754 79.9199 26.0332C79.6855 26.5254 79.4512 26.8535 79.2168 27.0176C78.9824 27.1934 78.7422 27.2812 78.4961 27.2812C78.1562 27.2812 77.8809 27.1816 77.6699 26.9824C77.4707 26.7715 77.3711 26.4785 77.3711 26.1035C77.3711 26.0215 77.3828 25.8633 77.4062 25.6289C77.4297 25.3828 77.459 25.0957 77.4941 24.7676C77.5293 24.4277 77.5645 24.0645 77.5996 23.6777C77.6348 23.291 77.6699 22.9102 77.7051 22.5352C77.7402 22.1484 77.7695 21.791 77.793 21.4629C77.8164 21.1348 77.8281 20.8594 77.8281 20.6367C77.8281 20.3438 77.8164 20.0625 77.793 19.793C77.7695 19.5234 77.7227 19.3594 77.6523 19.3008C77.5469 19.3359 77.3594 19.5586 77.0898 19.9688C76.8203 20.3672 76.4746 21.0762 76.0527 22.0957C75.9941 22.2246 75.9062 22.3242 75.7891 22.3945C75.6719 22.4648 75.5488 22.5 75.4199 22.5C75.2207 22.5 75.0625 22.4355 74.9453 22.3066C74.8281 22.166 74.7695 22.0078 74.7695 21.832C74.7695 21.75 74.7871 21.6621 74.8223 21.5684C75.3496 20.3145 75.8418 19.3945 76.2988 18.8086C76.7676 18.2109 77.2305 17.9121 77.6875 17.9121C77.957 17.9121 78.1855 17.9824 78.373 18.123C78.5605 18.252 78.707 18.4277 78.8125 18.6504C78.9297 18.873 79.0117 19.1191 79.0586 19.3887C79.1172 19.6582 79.1465 19.9336 79.1465 20.2148C79.1465 20.4258 79.1289 20.7539 79.0938 21.1992C79.0703 21.6445 79.0352 22.125 78.9883 22.6406C78.9414 23.1445 78.8945 23.6484 78.8477 24.1523C78.8125 24.6562 78.7773 25.0781 78.7422 25.418ZM93.7363 13.2012C93.7363 13.6465 93.5781 14.0273 93.2617 14.3438C92.957 14.6484 92.582 14.8008 92.1367 14.8008C91.6914 14.8008 91.3105 14.6484 90.9941 14.3438C90.6895 14.0273 90.5371 13.6465 90.5371 13.2012C90.5371 12.9785 90.5781 12.7734 90.6602 12.5859C90.7422 12.3867 90.8535 12.2168 90.9941 12.0762C91.1465 11.9238 91.3164 11.8066 91.5039 11.7246C91.7031 11.6426 91.9141 11.6016 92.1367 11.6016C92.3594 11.6016 92.5645 11.6426 92.752 11.7246C92.9512 11.8066 93.1211 11.9238 93.2617 12.0762C93.4141 12.2168 93.5312 12.3867 93.6133 12.5859C93.6953 12.7734 93.7363 12.9785 93.7363 13.2012ZM90.8887 23.502C90.8887 21.8145 90.9941 20.1328 91.2051 18.457C91.2285 18.293 91.2988 18.1523 91.416 18.0352C91.5449 17.9062 91.709 17.8418 91.9082 17.8418C92.084 17.8418 92.2305 17.9121 92.3477 18.0527C92.4648 18.1816 92.5234 18.334 92.5234 18.5098C92.5234 18.5801 92.5059 18.791 92.4707 19.1426C92.4473 19.4941 92.4121 19.916 92.3652 20.4082C92.3301 20.8887 92.2949 21.4043 92.2598 21.9551C92.2363 22.4941 92.2246 22.9922 92.2246 23.4492C92.2246 24.0703 92.2832 24.5742 92.4004 24.9609C92.5293 25.3359 92.6875 25.6289 92.875 25.8398C93.0742 26.0508 93.2793 26.1914 93.4902 26.2617C93.7129 26.332 93.9238 26.3672 94.123 26.3672C94.4512 26.3672 94.791 26.25 95.1426 26.0156C95.4941 25.7812 95.8516 25.4531 96.2148 25.0312C96.5898 24.6094 96.9648 24.1055 97.3398 23.5195C97.7148 22.9219 98.084 22.2598 98.4473 21.5332C98.5059 21.416 98.5879 21.3281 98.6934 21.2695C98.7988 21.1992 98.916 21.1641 99.0449 21.1641C99.2324 21.1641 99.3848 21.2344 99.502 21.375C99.6309 21.5156 99.6953 21.668 99.6953 21.832C99.6953 21.9492 99.6719 22.0488 99.625 22.1309C99.4844 22.4004 99.3086 22.7285 99.0977 23.1152C98.8867 23.502 98.6465 23.9004 98.377 24.3105C98.1074 24.7207 97.8086 25.1309 97.4805 25.541C97.1641 25.9395 96.8242 26.3027 96.4609 26.6309C96.0977 26.9473 95.7168 27.2051 95.3184 27.4043C94.9199 27.6035 94.5156 27.7031 94.1055 27.7031C93.5781 27.7031 93.1152 27.5918 92.7168 27.3691C92.3184 27.1465 91.9785 26.8477 91.6973 26.4727C91.4277 26.0977 91.2227 25.6582 91.082 25.1543C90.9531 24.6387 90.8887 24.0879 90.8887 23.502ZM92.752 13.2012C92.752 13.0371 92.6875 12.8965 92.5586 12.7793C92.4414 12.6504 92.3008 12.5859 92.1367 12.5859C91.9727 12.5859 91.832 12.6504 91.7148 12.7793C91.5977 12.8965 91.5391 13.0371 91.5391 13.2012C91.5391 13.3652 91.5977 13.5059 91.7148 13.623C91.832 13.7402 91.9727 13.7988 92.1367 13.7988C92.3008 13.7988 92.4414 13.7402 92.5586 13.623C92.6875 13.5059 92.752 13.3652 92.752 13.2012ZM102.332 25.418C102.52 25.0312 102.736 24.6094 102.982 24.1523C103.229 23.6836 103.492 23.2148 103.773 22.7461C104.055 22.2656 104.348 21.791 104.652 21.3223C104.969 20.8535 105.297 20.4082 105.637 19.9863C105.977 19.5762 106.316 19.2832 106.656 19.1074C107.008 18.9199 107.336 18.8262 107.641 18.8262C108.25 18.8262 108.701 19.0488 108.994 19.4941C109.287 19.9395 109.434 20.4902 109.434 21.1465C109.434 21.2988 109.422 21.4863 109.398 21.709C109.387 21.9199 109.369 22.1484 109.346 22.3945C109.334 22.6406 109.316 22.8926 109.293 23.1504C109.281 23.3965 109.275 23.6309 109.275 23.8535C109.275 24.1348 109.287 24.4043 109.311 24.6621C109.346 24.9199 109.404 25.1484 109.486 25.3477C109.568 25.5352 109.686 25.6875 109.838 25.8047C109.99 25.9102 110.189 25.9629 110.436 25.9629C110.881 25.9629 111.314 25.793 111.736 25.4531C112.158 25.1016 112.545 24.6914 112.896 24.2227C113.26 23.7422 113.57 23.2559 113.828 22.7637C114.098 22.2715 114.297 21.873 114.426 21.5684C114.484 21.4395 114.566 21.3398 114.672 21.2695C114.789 21.1992 114.912 21.1641 115.041 21.1641C115.24 21.1641 115.398 21.2402 115.516 21.3926C115.645 21.5332 115.709 21.6855 115.709 21.8496C115.709 21.9316 115.691 22.0137 115.656 22.0957C115.609 22.1895 115.516 22.3828 115.375 22.6758C115.234 22.9688 115.047 23.3086 114.812 23.6953C114.59 24.0703 114.326 24.4746 114.021 24.9082C113.717 25.3301 113.377 25.7168 113.002 26.0684C112.639 26.4199 112.24 26.7129 111.807 26.9473C111.385 27.1816 110.939 27.2988 110.471 27.2988C109.943 27.2988 109.516 27.1992 109.188 27C108.859 26.7891 108.602 26.5195 108.414 26.1914C108.227 25.8516 108.098 25.4824 108.027 25.084C107.969 24.6738 107.939 24.2637 107.939 23.8535C107.939 23.6777 107.945 23.4785 107.957 23.2559C107.98 23.0332 108.004 22.7988 108.027 22.5527C108.062 22.3066 108.086 22.0605 108.098 21.8145C108.121 21.5684 108.133 21.334 108.133 21.1113C108.133 20.7363 108.074 20.4844 107.957 20.3555C107.84 20.2148 107.734 20.1445 107.641 20.1445C107.453 20.1445 107.236 20.2559 106.99 20.4785C106.756 20.6895 106.504 20.9707 106.234 21.3223C105.977 21.6738 105.707 22.0723 105.426 22.5176C105.156 22.9512 104.898 23.3848 104.652 23.8184C104.418 24.252 104.195 24.668 103.984 25.0664C103.785 25.4531 103.627 25.7754 103.51 26.0332C103.275 26.5254 103.041 26.8535 102.807 27.0176C102.572 27.1934 102.332 27.2812 102.086 27.2812C101.746 27.2812 101.471 27.1816 101.26 26.9824C101.061 26.7715 100.961 26.4785 100.961 26.1035C100.961 26.0215 100.973 25.8633 100.996 25.6289C101.02 25.3828 101.049 25.0957 101.084 24.7676C101.119 24.4277 101.154 24.0645 101.189 23.6777C101.225 23.291 101.26 22.9102 101.295 22.5352C101.33 22.1484 101.359 21.791 101.383 21.4629C101.406 21.1348 101.418 20.8594 101.418 20.6367C101.418 20.3438 101.406 20.0625 101.383 19.793C101.359 19.5234 101.312 19.3594 101.242 19.3008C101.137 19.3359 100.949 19.5586 100.68 19.9688C100.41 20.3672 100.064 21.0762 99.6426 22.0957C99.584 22.2246 99.4961 22.3242 99.3789 22.3945C99.2617 22.4648 99.1387 22.5 99.0098 22.5C98.8105 22.5 98.6523 22.4355 98.5352 22.3066C98.418 22.166 98.3594 22.0078 98.3594 21.832C98.3594 21.75 98.377 21.6621 98.4121 21.5684C98.9395 20.3145 99.4316 19.3945 99.8887 18.8086C100.357 18.2109 100.82 17.9121 101.277 17.9121C101.547 17.9121 101.775 17.9824 101.963 18.123C102.15 18.252 102.297 18.4277 102.402 18.6504C102.52 18.873 102.602 19.1191 102.648 19.3887C102.707 19.6582 102.736 19.9336 102.736 20.2148C102.736 20.4258 102.719 20.7539 102.684 21.1992C102.66 21.6445 102.625 22.125 102.578 22.6406C102.531 23.1445 102.484 23.6484 102.438 24.1523C102.402 24.6562 102.367 25.0781 102.332 25.418ZM120.824 28.7227C123.027 25.8516 124.557 23.4668 125.412 21.5684C125.471 21.4395 125.547 21.3457 125.641 21.2871C125.746 21.2168 125.863 21.1816 125.992 21.1816C126.191 21.1816 126.355 21.252 126.484 21.3926C126.613 21.5215 126.678 21.6738 126.678 21.8496C126.678 21.9316 126.66 22.0137 126.625 22.0957C126.109 23.2676 125.377 24.5742 124.428 26.0156C123.479 27.457 122.277 29.0859 120.824 30.9023C120.824 31.6406 120.83 32.3789 120.842 33.1172C120.854 33.8555 120.859 34.6641 120.859 35.543C120.859 36.4219 120.836 37.2891 120.789 38.1445C120.754 39.0117 120.684 39.832 120.578 40.6055C120.473 41.3906 120.326 42.1113 120.139 42.7676C119.963 43.4355 119.729 44.0098 119.436 44.4902C119.154 44.9824 118.809 45.3633 118.398 45.6328C118 45.9141 117.525 46.0547 116.975 46.0547C116.189 46.0547 115.586 45.7559 115.164 45.1582C114.742 44.5605 114.531 43.7109 114.531 42.6094C114.531 42.0234 114.584 41.3848 114.689 40.6934C114.807 40.0137 114.971 39.3105 115.182 38.584C115.393 37.8574 115.645 37.1191 115.938 36.3691C116.242 35.6309 116.576 34.9102 116.939 34.207C117.303 33.5039 117.695 32.8301 118.117 32.1855C118.551 31.541 119.008 30.9551 119.488 30.4277C119.5 29.6074 119.506 28.793 119.506 27.9844C119.518 27.1758 119.535 26.4316 119.559 25.752C119.207 26.1973 118.785 26.5488 118.293 26.8066C117.812 27.0645 117.332 27.1934 116.852 27.1934C116.441 27.1934 116.066 27.1172 115.727 26.9648C115.398 26.8008 115.117 26.5781 114.883 26.2969C114.648 26.0039 114.467 25.6641 114.338 25.2773C114.209 24.8906 114.145 24.4688 114.145 24.0117C114.145 23.0977 114.297 22.2949 114.602 21.6035C114.918 20.9004 115.316 20.3145 115.797 19.8457C116.277 19.377 116.805 19.0254 117.379 18.791C117.965 18.5566 118.527 18.4395 119.066 18.4395C119.43 18.4395 119.764 18.4863 120.068 18.5801C120.373 18.6738 120.631 18.7793 120.842 18.8965C121.064 19.0137 121.234 19.125 121.352 19.2305C121.469 19.3359 121.533 19.3945 121.545 19.4062C121.674 19.5469 121.738 19.7051 121.738 19.8809C121.738 20.0566 121.674 20.2148 121.545 20.3555C121.416 20.4844 121.264 20.5488 121.088 20.5488C120.924 20.5488 120.766 20.4844 120.613 20.3555C120.566 20.3203 120.502 20.2734 120.42 20.2148C120.35 20.1445 120.25 20.0742 120.121 20.0039C120.004 19.9336 119.857 19.875 119.682 19.8281C119.518 19.7812 119.318 19.7578 119.084 19.7578C118.732 19.7578 118.346 19.8398 117.924 20.0039C117.502 20.1562 117.109 20.4023 116.746 20.7422C116.383 21.082 116.078 21.5215 115.832 22.0605C115.586 22.5879 115.463 23.2266 115.463 23.9766C115.463 24.5391 115.586 24.9961 115.832 25.3477C116.078 25.6875 116.459 25.8574 116.975 25.8574C117.221 25.8574 117.479 25.7871 117.748 25.6465C118.029 25.5059 118.299 25.2891 118.557 24.9961C118.814 24.7031 119.037 24.334 119.225 23.8887C119.424 23.4434 119.564 22.916 119.646 22.3066C119.67 22.1426 119.746 22.0078 119.875 21.9023C120.004 21.7852 120.156 21.7266 120.332 21.7266C120.531 21.7266 120.684 21.7969 120.789 21.9375C120.906 22.0781 120.965 22.2363 120.965 22.4121C120.965 22.4238 120.959 22.6055 120.947 22.957C120.936 23.2969 120.924 23.7539 120.912 24.3281C120.9 24.9023 120.883 25.5703 120.859 26.332C120.848 27.082 120.836 27.8789 120.824 28.7227ZM119.488 32.5723C118.938 33.334 118.439 34.1602 117.994 35.0508C117.549 35.9531 117.168 36.8613 116.852 37.7754C116.535 38.6895 116.289 39.5742 116.113 40.4297C115.949 41.2969 115.867 42.0703 115.867 42.75C115.867 43.1836 115.902 43.5293 115.973 43.7871C116.055 44.0449 116.148 44.2441 116.254 44.3848C116.371 44.5254 116.494 44.6191 116.623 44.666C116.764 44.7129 116.893 44.7363 117.01 44.7363C117.373 44.7363 117.689 44.5898 117.959 44.2969C118.229 44.0039 118.457 43.6113 118.645 43.1191C118.832 42.6387 118.984 42.082 119.102 41.4492C119.219 40.8164 119.307 40.1602 119.365 39.4805C119.424 38.8125 119.465 38.1445 119.488 37.4766C119.512 36.8086 119.523 36.1934 119.523 35.6309C119.523 35.127 119.523 34.623 119.523 34.1191C119.523 33.6152 119.512 33.0996 119.488 32.5723ZM165.684 14.7832C166.691 15.0645 167.547 15.3867 168.25 15.75C168.965 16.1133 169.562 16.4941 170.043 16.8926C170.535 17.2793 170.922 17.6777 171.203 18.0879C171.484 18.498 171.701 18.8906 171.854 19.2656C172.006 19.6406 172.1 19.9922 172.135 20.3203C172.182 20.6367 172.205 20.9062 172.205 21.1289C172.205 21.9492 172.047 22.6816 171.73 23.3262C171.426 23.9707 171.01 24.5391 170.482 25.0312C169.955 25.5234 169.34 25.9395 168.637 26.2793C167.945 26.6191 167.219 26.8945 166.457 27.1055C165.695 27.3281 164.916 27.4863 164.119 27.5801C163.322 27.6855 162.566 27.7383 161.852 27.7383C160.691 27.7383 159.49 27.6211 158.248 27.3867C157.018 27.1523 155.77 26.7715 154.504 26.2441C154.223 26.127 154.082 25.9219 154.082 25.6289C154.082 25.4297 154.152 25.2715 154.293 25.1543C154.434 25.0254 154.586 24.9609 154.75 24.9609C154.832 24.9609 154.92 24.9785 155.014 25.0137C156.104 25.4707 157.223 25.8164 158.371 26.0508C159.52 26.2852 160.674 26.4023 161.834 26.4023C163.416 26.4023 164.775 26.25 165.912 25.9453C167.049 25.6406 167.98 25.2422 168.707 24.75C169.445 24.2461 169.99 23.6836 170.342 23.0625C170.693 22.4297 170.869 21.791 170.869 21.1465C170.869 20.4316 170.67 19.7695 170.271 19.1602C169.885 18.5508 169.328 18.0059 168.602 17.5254C167.887 17.0449 167.025 16.6348 166.018 16.2949C165.01 15.9551 163.891 15.7031 162.66 15.5391C161.852 15.6797 161.066 15.7793 160.305 15.8379C159.543 15.8965 158.84 15.9258 158.195 15.9258H157.791C157.709 15.9258 157.633 15.9199 157.562 15.9082C156.719 17.9355 155.711 19.6875 154.539 21.1641C153.379 22.6406 152.137 23.8652 150.812 24.8379C149.5 25.7988 148.146 26.5137 146.752 26.9824C145.369 27.4395 144.039 27.668 142.762 27.668C141.438 27.668 140.219 27.4805 139.105 27.1055C138.004 26.7422 137.055 26.2207 136.258 25.541C135.461 24.8613 134.84 24.041 134.395 23.0801C133.949 22.1074 133.727 21.0234 133.727 19.8281C133.727 18.5859 133.967 17.3027 134.447 15.9785C134.939 14.6426 135.666 13.2891 136.627 11.918C137.541 10.6289 138.555 9.47461 139.668 8.45508C140.781 7.42383 141.947 6.52148 143.166 5.74805C144.396 4.97461 145.662 4.3125 146.963 3.76172C148.264 3.21094 149.553 2.75977 150.83 2.4082C152.119 2.05664 153.373 1.80469 154.592 1.65234C155.822 1.48828 156.977 1.40625 158.055 1.40625C158.934 1.40625 159.771 1.43555 160.568 1.49414C161.365 1.55273 162.127 1.64062 162.854 1.75781C163.275 1.28906 163.615 0.955078 163.873 0.755859C164.131 0.544922 164.277 0.427734 164.312 0.404297C164.453 0.333984 164.576 0.298828 164.682 0.298828C164.846 0.298828 164.992 0.345703 165.121 0.439453C165.25 0.533203 165.314 0.667969 165.314 0.84375C165.314 1.07812 165.232 1.27734 165.068 1.44141C164.904 1.59375 164.682 1.80469 164.4 2.07422C166.545 2.60156 168.186 3.39844 169.322 4.46484C170.459 5.51953 171.027 6.82617 171.027 8.38477C171.027 9.24023 170.887 10.0078 170.605 10.6875C170.324 11.3672 169.938 11.9648 169.445 12.4805C168.965 12.9961 168.396 13.4473 167.74 13.834C167.096 14.209 166.41 14.5254 165.684 14.7832ZM162.678 14.2031C163.193 14.1094 163.721 13.9863 164.26 13.834C164.811 13.6816 165.344 13.5 165.859 13.2891C166.387 13.0664 166.885 12.8086 167.354 12.5156C167.822 12.2109 168.227 11.8594 168.566 11.4609C168.918 11.0508 169.193 10.5938 169.393 10.0898C169.604 9.58594 169.709 9.01172 169.709 8.36719C169.709 7.05469 169.164 5.9707 168.074 5.11523C166.984 4.25977 165.42 3.62695 163.381 3.2168C162.795 3.94336 162.244 4.74609 161.729 5.625C161.213 6.50391 160.738 7.41797 160.305 8.36719C159.871 9.30469 159.479 10.2598 159.127 11.2324C158.787 12.1934 158.506 13.125 158.283 14.0273C158.518 14.0156 158.734 14.0098 158.934 14.0098C159.133 14.0098 159.303 14.0098 159.443 14.0098C159.9 14.0098 160.398 14.0273 160.938 14.0625C161.477 14.0859 162.057 14.1328 162.678 14.2031ZM161.887 2.9707C161.289 2.88867 160.674 2.83008 160.041 2.79492C159.408 2.75977 158.746 2.74219 158.055 2.74219C157.023 2.74219 155.928 2.81836 154.768 2.9707C153.607 3.12305 152.418 3.36328 151.199 3.69141C149.98 4.01953 148.75 4.44727 147.508 4.97461C146.277 5.49023 145.076 6.11719 143.904 6.85547C142.744 7.58203 141.637 8.43164 140.582 9.4043C139.527 10.377 138.566 11.4727 137.699 12.6914C136.82 13.9336 136.158 15.1582 135.713 16.3652C135.268 17.5723 135.045 18.7207 135.045 19.8105C135.045 20.8301 135.227 21.7441 135.59 22.5527C135.965 23.3613 136.492 24.0469 137.172 24.6094C137.852 25.1602 138.666 25.5879 139.615 25.8926C140.564 26.1855 141.613 26.332 142.762 26.332C143.91 26.332 145.105 26.127 146.348 25.7168C147.59 25.2949 148.803 24.6562 149.986 23.8008C151.17 22.9336 152.295 21.8438 153.361 20.5312C154.428 19.207 155.359 17.6367 156.156 15.8203C155.945 15.8203 155.729 15.7617 155.506 15.6445C155.283 15.5156 155.172 15.3164 155.172 15.0469C155.172 14.7656 155.307 14.5664 155.576 14.4492C155.846 14.3203 156.268 14.2148 156.842 14.1328C157.158 13.1719 157.48 12.2109 157.809 11.25C158.137 10.2891 158.5 9.33984 158.898 8.40234C159.297 7.46484 159.736 6.54492 160.217 5.64258C160.697 4.72852 161.254 3.83789 161.887 2.9707ZM177.021 19.7754C176.975 20.0918 176.916 20.3906 176.846 20.6719C176.775 20.9414 176.705 21.1816 176.635 21.3926C176.576 21.5918 176.523 21.7559 176.477 21.8848C176.43 22.0137 176.4 22.084 176.389 22.0957C176.271 22.3652 176.066 22.5 175.773 22.5C175.609 22.5 175.457 22.4414 175.316 22.3242C175.176 22.1953 175.105 22.0371 175.105 21.8496C175.105 21.7793 175.117 21.7266 175.141 21.6914C175.164 21.6562 175.199 21.5859 175.246 21.4805C175.293 21.375 175.352 21.1992 175.422 20.9531C175.492 20.707 175.58 20.3262 175.686 19.8105C175.486 19.8105 175.281 19.8047 175.07 19.793C174.859 19.7812 174.666 19.7402 174.49 19.6699C174.303 19.5996 174.15 19.4883 174.033 19.3359C173.916 19.1836 173.857 18.9727 173.857 18.7031C173.857 18.5039 173.916 18.2344 174.033 17.8945C174.139 17.5547 174.285 17.2207 174.473 16.8926C174.66 16.5645 174.871 16.2832 175.105 16.0488C175.34 15.8027 175.574 15.6797 175.809 15.6797C176.078 15.6797 176.295 15.7793 176.459 15.9785C176.635 16.1777 176.77 16.4238 176.863 16.7168C176.957 16.998 177.021 17.2969 177.057 17.6133C177.104 17.9297 177.127 18.2051 177.127 18.4395C177.326 18.4395 177.52 18.4395 177.707 18.4395C177.906 18.4277 178.094 18.4219 178.27 18.4219C178.938 18.4219 179.447 18.5684 179.799 18.8613C180.15 19.1543 180.326 19.6348 180.326 20.3027C180.326 20.5723 180.309 20.8535 180.273 21.1465C180.238 21.4395 180.197 21.7441 180.15 22.0605C180.104 22.3652 180.062 22.6699 180.027 22.9746C179.992 23.2793 179.975 23.5781 179.975 23.8711C179.975 24.293 180.033 24.6445 180.15 24.9258C180.268 25.1953 180.414 25.4121 180.59 25.5762C180.766 25.7402 180.953 25.8574 181.152 25.9277C181.352 25.9863 181.533 26.0156 181.697 26.0156C182.201 26.0156 182.676 25.8516 183.121 25.5234C183.566 25.1953 183.977 24.8027 184.352 24.3457C184.727 23.877 185.061 23.3848 185.354 22.8691C185.658 22.3535 185.91 21.9023 186.109 21.5156C186.168 21.4102 186.25 21.3281 186.355 21.2695C186.461 21.2109 186.572 21.1816 186.689 21.1816C186.9 21.1816 187.064 21.252 187.182 21.3926C187.299 21.5215 187.357 21.668 187.357 21.832C187.357 21.9492 187.334 22.0547 187.287 22.1484C187.018 22.6289 186.701 23.1738 186.338 23.7832C185.986 24.3809 185.582 24.9434 185.125 25.4707C184.668 25.998 184.152 26.4434 183.578 26.8066C183.016 27.1699 182.395 27.3516 181.715 27.3516C181.293 27.3516 180.895 27.2695 180.52 27.1055C180.145 26.9531 179.816 26.7305 179.535 26.4375C179.266 26.1328 179.049 25.7637 178.885 25.3301C178.721 24.8848 178.639 24.3867 178.639 23.8359C178.639 23.25 178.697 22.6699 178.814 22.0957C178.932 21.5098 178.99 20.9531 178.99 20.4258C178.99 20.2031 178.938 20.0391 178.832 19.9336C178.738 19.8164 178.521 19.7578 178.182 19.7578C178.018 19.7578 177.836 19.7578 177.637 19.7578C177.449 19.7578 177.244 19.7637 177.021 19.7754ZM175.844 18.4746C175.844 18.3926 175.838 18.2871 175.826 18.1582C175.826 18.0176 175.814 17.8828 175.791 17.7539C175.779 17.625 175.756 17.5137 175.721 17.4199C175.697 17.3262 175.668 17.2793 175.633 17.2793C175.598 17.2793 175.551 17.3262 175.492 17.4199C175.445 17.502 175.393 17.6074 175.334 17.7363C175.275 17.8535 175.223 17.9824 175.176 18.123C175.129 18.2637 175.094 18.3809 175.07 18.4746H175.844ZM188.219 25.0664C188.465 25.4062 188.781 25.6816 189.168 25.8926C189.555 26.0918 190.029 26.1914 190.592 26.1914C191.166 26.1914 191.688 26.0566 192.156 25.7871C192.625 25.5059 193.053 25.1426 193.439 24.6973C193.826 24.252 194.172 23.7539 194.477 23.2031C194.781 22.6523 195.057 22.1016 195.303 21.5508C195.361 21.4219 195.443 21.3281 195.549 21.2695C195.654 21.1992 195.771 21.1641 195.9 21.1641C196.1 21.1641 196.258 21.2344 196.375 21.375C196.504 21.5156 196.568 21.668 196.568 21.832C196.568 21.8906 196.562 21.9434 196.551 21.9902C196.539 22.0254 196.521 22.0664 196.498 22.1133C195.689 23.8945 194.805 25.2363 193.844 26.1387C192.895 27.041 191.816 27.5039 190.609 27.5273C189.836 27.5273 189.168 27.375 188.605 27.0703C188.043 26.7773 187.58 26.3965 187.217 25.9277C186.854 25.4473 186.584 24.9082 186.408 24.3105C186.232 23.7129 186.145 23.1152 186.145 22.5176C186.145 21.9199 186.215 21.3691 186.355 20.8652C186.508 20.3613 186.719 19.9219 186.988 19.5469C187.27 19.1719 187.598 18.8789 187.973 18.668C188.359 18.457 188.781 18.3516 189.238 18.3516C189.508 18.3516 189.771 18.4102 190.029 18.5273C190.299 18.6328 190.539 18.791 190.75 19.002C190.961 19.2012 191.131 19.4473 191.26 19.7402C191.389 20.0332 191.453 20.3672 191.453 20.7422C191.453 21.2227 191.371 21.6738 191.207 22.0957C191.043 22.5176 190.814 22.9102 190.521 23.2734C190.24 23.6367 189.9 23.9707 189.502 24.2754C189.104 24.5801 188.676 24.8438 188.219 25.0664ZM187.691 23.9238C188.055 23.7715 188.383 23.5781 188.676 23.3438C188.98 23.1094 189.238 22.8516 189.449 22.5703C189.66 22.2891 189.824 21.9961 189.941 21.6914C190.059 21.375 190.117 21.0586 190.117 20.7422C190.117 20.3906 190.029 20.127 189.854 19.9512C189.678 19.7637 189.473 19.6699 189.238 19.6699C188.922 19.6699 188.652 19.7578 188.43 19.9336C188.207 20.1094 188.025 20.3379 187.885 20.6191C187.744 20.9004 187.639 21.2168 187.568 21.5684C187.51 21.9082 187.48 22.248 187.48 22.5879C187.48 22.7988 187.498 23.0215 187.533 23.2559C187.58 23.4902 187.633 23.7129 187.691 23.9238ZM207.643 22.1133C207.607 22.7227 207.525 23.3379 207.396 23.959C207.268 24.5684 207.062 25.1191 206.781 25.6113C206.512 26.1035 206.154 26.5078 205.709 26.8242C205.264 27.1289 204.713 27.2812 204.057 27.2812C203.646 27.2812 203.283 27.2168 202.967 27.0879C202.662 26.9707 202.393 26.8125 202.158 26.6133C201.936 26.4023 201.748 26.168 201.596 25.9102C201.443 25.6406 201.314 25.3594 201.209 25.0664C200.799 25.7461 200.312 26.2734 199.75 26.6484C199.199 27.0117 198.648 27.1934 198.098 27.1934C197.652 27.1934 197.248 27.1113 196.885 26.9473C196.533 26.7832 196.229 26.5547 195.971 26.2617C195.725 25.957 195.531 25.5938 195.391 25.1719C195.25 24.75 195.18 24.2754 195.18 23.748C195.18 22.8691 195.256 22.1133 195.408 21.4805C195.572 20.8359 195.748 20.3086 195.936 19.8984C196.135 19.4883 196.316 19.1836 196.48 18.9844C196.645 18.7734 196.727 18.668 196.727 18.668C196.785 18.5977 196.855 18.5449 196.938 18.5098C197.031 18.4746 197.125 18.457 197.219 18.457C197.406 18.457 197.559 18.5273 197.676 18.668C197.805 18.7969 197.869 18.9492 197.869 19.125C197.869 19.2539 197.822 19.3945 197.729 19.5469C197.682 19.6172 197.588 19.752 197.447 19.9512C197.318 20.1504 197.184 20.4199 197.043 20.7598C196.902 21.0996 196.773 21.5156 196.656 22.0078C196.551 22.5 196.498 23.0801 196.498 23.748C196.498 24.4395 196.639 24.9668 196.92 25.3301C197.201 25.6816 197.594 25.8574 198.098 25.8574C198.344 25.8574 198.613 25.793 198.906 25.6641C199.199 25.5234 199.475 25.3125 199.732 25.0312C199.99 24.75 200.213 24.3926 200.4 23.959C200.588 23.5254 200.705 23.0156 200.752 22.4297L200.98 19.4062C200.992 19.2305 201.062 19.084 201.191 18.9668C201.332 18.8496 201.49 18.791 201.666 18.791C201.865 18.791 202.023 18.8672 202.141 19.0195C202.258 19.1602 202.316 19.3242 202.316 19.5117L202.123 22.4121C202.088 23.0332 202.105 23.5664 202.176 24.0117C202.258 24.457 202.387 24.8262 202.562 25.1191C202.738 25.4004 202.955 25.6113 203.213 25.752C203.471 25.8809 203.758 25.9453 204.074 25.9453C204.496 25.9453 204.854 25.8223 205.146 25.5762C205.439 25.3301 205.674 24.9961 205.85 24.5742C206.025 24.1523 206.148 23.666 206.219 23.1152C206.301 22.5527 206.342 21.9609 206.342 21.3398C206.342 20.6016 206.301 19.9863 206.219 19.4941C206.137 19.002 206.096 18.6738 206.096 18.5098C206.096 18.334 206.16 18.1816 206.289 18.0527C206.418 17.9121 206.576 17.8418 206.764 17.8418C206.928 17.8418 207.068 17.8945 207.186 18C207.303 18.0938 207.379 18.2227 207.414 18.3867C207.426 18.4336 207.461 18.5684 207.52 18.791C207.578 19.0137 207.66 19.2832 207.766 19.5996C207.871 19.9043 208.006 20.2324 208.17 20.584C208.346 20.9238 208.551 21.2402 208.785 21.5332C209.031 21.8262 209.307 22.0723 209.611 22.2715C209.928 22.459 210.285 22.5527 210.684 22.5527C210.906 22.5527 211.094 22.5117 211.246 22.4297C211.41 22.3359 211.545 22.2305 211.65 22.1133C211.756 21.9961 211.832 21.8848 211.879 21.7793C211.938 21.6738 211.973 21.6094 211.984 21.5859C212.043 21.457 212.125 21.3574 212.23 21.2871C212.348 21.2051 212.471 21.1641 212.6 21.1641C212.799 21.1641 212.957 21.2402 213.074 21.3926C213.203 21.5332 213.268 21.6855 213.268 21.8496C213.268 21.9902 213.203 22.1777 213.074 22.4121C212.957 22.6465 212.787 22.875 212.564 23.0977C212.342 23.3086 212.066 23.4961 211.738 23.6602C211.422 23.8125 211.07 23.8887 210.684 23.8887C210.344 23.8887 210.027 23.8418 209.734 23.748C209.441 23.6426 209.166 23.5078 208.908 23.3438C208.662 23.1797 208.434 22.9922 208.223 22.7812C208.012 22.5703 207.818 22.3477 207.643 22.1133ZM238.176 24.9961C236.43 25.7695 234.73 26.3379 233.078 26.7012C231.438 27.0527 229.879 27.2285 228.402 27.2285C227.301 27.2285 226.352 27.1582 225.555 27.0176C224.77 26.8887 224.102 26.7188 223.551 26.5078C223 26.2969 222.561 26.0566 222.232 25.7871C221.904 25.5176 221.646 25.2422 221.459 24.9609C221.283 24.6797 221.166 24.4102 221.107 24.1523C221.049 23.8945 221.02 23.666 221.02 23.4668C221.02 22.9746 221.137 22.5469 221.371 22.1836C221.605 21.8203 221.898 21.5098 222.25 21.252C222.613 20.9824 223.006 20.7656 223.428 20.6016C223.861 20.4258 224.271 20.2852 224.658 20.1797C223.709 19.207 222.994 18.1348 222.514 16.9629C222.033 15.791 221.793 14.5371 221.793 13.2012C221.793 12.041 221.957 10.9277 222.285 9.86133C222.625 8.79492 223.088 7.80469 223.674 6.89062C224.271 5.96484 224.986 5.12695 225.818 4.37695C226.65 3.62695 227.559 2.98828 228.543 2.46094C229.539 1.92187 230.6 1.51172 231.725 1.23047C232.85 0.9375 234.004 0.791016 235.188 0.791016C236.371 0.791016 237.502 0.931641 238.58 1.21289C239.67 1.49414 240.678 1.89258 241.604 2.4082C242.541 2.91211 243.385 3.52148 244.135 4.23633C244.896 4.93945 245.547 5.73047 246.086 6.60938C246.625 7.47656 247.041 8.4082 247.334 9.4043C247.627 10.4004 247.773 11.4375 247.773 12.5156C247.773 13.5469 247.65 14.5137 247.404 15.416C247.17 16.3184 246.842 17.1562 246.42 17.9297C246.01 18.7031 245.529 19.418 244.979 20.0742C244.439 20.7188 243.865 21.3047 243.256 21.832C242.658 22.3594 242.037 22.8281 241.393 23.2383C240.76 23.6484 240.15 24 239.564 24.293C240.197 24.6914 240.812 25.0957 241.41 25.5059C242.02 25.9043 242.611 26.291 243.186 26.666C243.771 27.041 244.346 27.3926 244.908 27.7207C245.482 28.0488 246.045 28.3359 246.596 28.582C247.299 28.8984 247.996 29.1152 248.688 29.2324C249.379 29.3496 250.041 29.4082 250.674 29.4082C251.307 29.4082 251.898 29.3613 252.449 29.2676C253.012 29.1855 253.492 29.0918 253.891 28.9863C254.301 28.8809 254.623 28.7812 254.857 28.6875C255.104 28.5938 255.227 28.5469 255.227 28.5469C255.309 28.5117 255.396 28.4941 255.49 28.4941C255.666 28.4941 255.818 28.5527 255.947 28.6699C256.088 28.7988 256.158 28.9629 256.158 29.1621C256.158 29.291 256.123 29.4082 256.053 29.5137C255.994 29.6191 255.9 29.7012 255.771 29.7598C255.736 29.7715 255.584 29.8301 255.314 29.9355C255.045 30.041 254.682 30.1523 254.225 30.2695C253.779 30.3867 253.252 30.4922 252.643 30.5859C252.045 30.6914 251.395 30.7441 250.691 30.7441C249.977 30.7441 249.227 30.6738 248.441 30.5332C247.656 30.3926 246.859 30.1406 246.051 29.7773C245.418 29.4961 244.779 29.168 244.135 28.793C243.502 28.418 242.857 28.0195 242.201 27.5977C241.545 27.1758 240.883 26.7422 240.215 26.2969C239.547 25.8516 238.867 25.418 238.176 24.9961ZM238.316 23.5371C239.383 23.0332 240.402 22.4355 241.375 21.7441C242.359 21.041 243.227 20.2324 243.977 19.3184C244.727 18.4043 245.324 17.3789 245.77 16.2422C246.215 15.1055 246.438 13.8516 246.438 12.4805C246.438 11.0508 246.15 9.70898 245.576 8.45508C245.002 7.18945 244.211 6.08789 243.203 5.15039C242.195 4.20117 241.006 3.45703 239.635 2.91797C238.264 2.36719 236.781 2.0918 235.188 2.0918C234.109 2.0918 233.066 2.22656 232.059 2.49609C231.051 2.75391 230.096 3.12305 229.193 3.60352C228.303 4.07227 227.482 4.64062 226.732 5.30859C225.994 5.97656 225.355 6.7207 224.816 7.54102C224.277 8.36133 223.855 9.24609 223.551 10.1953C223.258 11.1445 223.111 12.1289 223.111 13.1484C223.111 13.9453 223.199 14.6836 223.375 15.3633C223.562 16.0312 223.803 16.6465 224.096 17.209C224.4 17.7715 224.746 18.2754 225.133 18.7207C225.52 19.166 225.918 19.5645 226.328 19.916C226.48 19.9043 226.633 19.8984 226.785 19.8984C226.949 19.8867 227.113 19.8809 227.277 19.8809C227.805 19.8809 228.379 19.916 229 19.9863C229.621 20.0566 230.289 20.1738 231.004 20.3379C232.328 20.6426 233.6 21.0879 234.818 21.6738C236.049 22.2598 237.215 22.8809 238.316 23.5371ZM236.805 24.1699C236.102 23.7129 235.404 23.3145 234.713 22.9746C234.033 22.6348 233.342 22.3477 232.639 22.1133C231.936 21.8672 231.209 21.6738 230.459 21.5332C229.709 21.3809 228.918 21.2695 228.086 21.1992C228.426 21.4336 228.736 21.6094 229.018 21.7266C229.311 21.832 229.498 21.9023 229.58 21.9375C229.873 22.0664 230.02 22.2656 230.02 22.5352C230.02 22.7344 229.955 22.8926 229.826 23.0098C229.697 23.1152 229.545 23.168 229.369 23.168C229.24 23.168 229.1 23.1387 228.947 23.0801C228.924 23.0801 228.83 23.0449 228.666 22.9746C228.502 22.9043 228.279 22.7988 227.998 22.6582C227.717 22.5059 227.395 22.3184 227.031 22.0957C226.668 21.8613 226.281 21.5859 225.871 21.2695C225.566 21.2695 225.209 21.3164 224.799 21.4102C224.4 21.4922 224.02 21.6211 223.656 21.7969C223.293 21.9727 222.982 22.2012 222.725 22.4824C222.467 22.752 222.338 23.0801 222.338 23.4668C222.338 23.748 222.426 24.0352 222.602 24.3281C222.789 24.6211 223.111 24.8906 223.568 25.1367C224.037 25.3711 224.664 25.5645 225.449 25.7168C226.234 25.8691 227.23 25.9453 228.438 25.9453C228.895 25.9453 229.422 25.9219 230.02 25.875C230.629 25.8281 231.285 25.7402 231.988 25.6113C232.703 25.4824 233.465 25.3066 234.273 25.084C235.082 24.8496 235.926 24.5449 236.805 24.1699ZM255.648 25.0312C255.238 25.6992 254.758 26.2266 254.207 26.6133C253.668 27 253.123 27.1934 252.572 27.1934C252.127 27.1934 251.729 27.1113 251.377 26.9473C251.025 26.7832 250.721 26.5547 250.463 26.2617C250.205 25.957 250.006 25.5938 249.865 25.1719C249.736 24.75 249.672 24.2754 249.672 23.748C249.672 22.9277 249.748 22.2012 249.9 21.5684C250.064 20.9355 250.24 20.4082 250.428 19.9863C250.615 19.5527 250.791 19.2246 250.955 19.002C251.119 18.7793 251.201 18.668 251.201 18.668C251.26 18.5977 251.33 18.5449 251.412 18.5098C251.506 18.4746 251.6 18.457 251.693 18.457C251.881 18.457 252.033 18.5273 252.15 18.668C252.279 18.7969 252.344 18.9492 252.344 19.125C252.344 19.1953 252.326 19.2656 252.291 19.3359C252.268 19.4062 252.238 19.4766 252.203 19.5469C252.145 19.6523 252.051 19.8164 251.922 20.0391C251.793 20.25 251.658 20.5312 251.518 20.8828C251.377 21.2344 251.254 21.6504 251.148 22.1309C251.043 22.5996 250.99 23.1387 250.99 23.748C250.99 24.4395 251.125 24.9668 251.395 25.3301C251.676 25.6816 252.068 25.8574 252.572 25.8574C252.783 25.8574 253.023 25.793 253.293 25.6641C253.574 25.5234 253.844 25.3125 254.102 25.0312C254.371 24.75 254.605 24.3926 254.805 23.959C255.004 23.5254 255.133 23.0156 255.191 22.4297L255.455 19.4062C255.479 19.2305 255.555 19.084 255.684 18.9668C255.812 18.8496 255.965 18.791 256.141 18.791C256.34 18.791 256.498 18.8672 256.615 19.0195C256.732 19.1602 256.791 19.3242 256.791 19.5117L256.562 22.4297C256.539 22.6758 256.545 22.998 256.58 23.3965C256.627 23.7949 256.715 24.1875 256.844 24.5742C256.973 24.9609 257.166 25.2949 257.424 25.5762C257.682 25.8457 258.021 25.9805 258.443 25.9805C258.748 25.9805 259.047 25.9043 259.34 25.752C259.633 25.5879 259.914 25.377 260.184 25.1191C260.453 24.8613 260.699 24.5742 260.922 24.2578C261.156 23.9297 261.367 23.6016 261.555 23.2734C261.754 22.9453 261.924 22.6348 262.064 22.3418C262.205 22.0371 262.322 21.7793 262.416 21.5684C262.475 21.4395 262.557 21.3398 262.662 21.2695C262.768 21.1992 262.885 21.1641 263.014 21.1641C263.225 21.1641 263.389 21.2344 263.506 21.375C263.623 21.5156 263.682 21.668 263.682 21.832C263.682 21.9258 263.664 22.0137 263.629 22.0957C263.582 22.1895 263.488 22.3887 263.348 22.6934C263.219 22.9863 263.043 23.3262 262.82 23.7129C262.609 24.0879 262.352 24.4863 262.047 24.9082C261.742 25.3301 261.402 25.7227 261.027 26.0859C260.652 26.4375 260.242 26.7305 259.797 26.9648C259.363 27.1875 258.895 27.2988 258.391 27.2988C257.699 27.2988 257.125 27.1055 256.668 26.7188C256.211 26.3203 255.871 25.7578 255.648 25.0312ZM270.537 25.0664C270.244 25.0664 269.986 25.043 269.764 24.9961C269.588 25.3477 269.377 25.6758 269.131 25.9805C268.885 26.2734 268.598 26.5312 268.27 26.7539C267.953 26.9766 267.596 27.1523 267.197 27.2812C266.799 27.4102 266.365 27.4746 265.896 27.4746C265.346 27.4746 264.842 27.375 264.385 27.1758C263.928 26.9883 263.529 26.7246 263.189 26.3848C262.85 26.0332 262.586 25.6172 262.398 25.1367C262.211 24.6445 262.117 24.1055 262.117 23.5195C262.117 22.7695 262.252 22.1191 262.521 21.5684C262.791 21.0059 263.102 20.543 263.453 20.1797C263.805 19.8047 264.156 19.5293 264.508 19.3535C264.859 19.166 265.123 19.0723 265.299 19.0723C265.498 19.0723 265.645 19.125 265.738 19.2305C265.844 19.3359 265.896 19.4766 265.896 19.6523C265.896 19.8516 265.832 20.0039 265.703 20.1094C265.586 20.2031 265.434 20.2969 265.246 20.3906C265.059 20.4844 264.859 20.6191 264.648 20.7949C264.438 20.959 264.238 21.1699 264.051 21.4277C263.875 21.6855 263.729 21.9902 263.611 22.3418C263.494 22.6934 263.436 23.0859 263.436 23.5195C263.436 23.9062 263.494 24.2695 263.611 24.6094C263.729 24.9375 263.898 25.2246 264.121 25.4707C264.344 25.7051 264.607 25.8926 264.912 26.0332C265.217 26.1621 265.557 26.2266 265.932 26.2266C266.6 26.2266 267.15 26.0742 267.584 25.7695C268.029 25.4531 268.369 25.0547 268.604 24.5742C267.912 24.2109 267.344 23.6953 266.898 23.0273C266.453 22.3594 266.23 21.6094 266.23 20.7773C266.23 20.1094 266.389 19.5645 266.705 19.1426C267.033 18.7207 267.461 18.5098 267.988 18.5098C268.305 18.5098 268.604 18.5859 268.885 18.7383C269.166 18.8906 269.412 19.1309 269.623 19.459C269.846 19.7871 270.021 20.209 270.15 20.7246C270.279 21.2402 270.344 21.8555 270.344 22.5703C270.344 22.9453 270.297 23.3379 270.203 23.748C270.273 23.7598 270.344 23.7656 270.414 23.7656C270.484 23.7656 270.561 23.7656 270.643 23.7656C271.041 23.7656 271.398 23.7188 271.715 23.625C272.031 23.5312 272.318 23.3906 272.576 23.2031C272.834 23.0156 273.062 22.7754 273.262 22.4824C273.473 22.1895 273.672 21.8496 273.859 21.4629C273.895 21.3926 273.971 21.3281 274.088 21.2695C274.205 21.1992 274.322 21.1641 274.439 21.1641C274.592 21.1641 274.732 21.2285 274.861 21.3574C275.002 21.4746 275.072 21.6328 275.072 21.832C275.072 21.9258 275.049 22.0312 275.002 22.1484C274.955 22.2539 274.908 22.3535 274.861 22.4473C274.662 22.7988 274.428 23.1387 274.158 23.4668C273.9 23.7832 273.59 24.0645 273.227 24.3105C272.875 24.5449 272.477 24.7324 272.031 24.873C271.586 25.0137 271.088 25.0781 270.537 25.0664ZM267.531 20.6367C267.531 20.8594 267.561 21.0938 267.619 21.3398C267.678 21.5859 267.766 21.832 267.883 22.0781C268.012 22.3125 268.164 22.541 268.34 22.7637C268.527 22.9746 268.744 23.1562 268.99 23.3086C269.025 23.0625 269.043 22.8223 269.043 22.5879C269.043 22.2715 269.02 21.9492 268.973 21.6211C268.926 21.293 268.855 20.9941 268.762 20.7246C268.68 20.4434 268.574 20.2207 268.445 20.0566C268.316 19.8809 268.164 19.793 267.988 19.793C267.918 19.793 267.824 19.8457 267.707 19.9512C267.59 20.0566 267.531 20.2852 267.531 20.6367ZM288.062 9.4043C288.062 9.5918 287.998 9.74414 287.869 9.86133C287.74 9.9668 287.582 10.0195 287.395 10.0195H278.482V10.2129C278.482 10.9277 278.43 11.6895 278.324 12.498C278.219 13.3066 278.072 14.1152 277.885 14.9238C277.709 15.7207 277.504 16.5 277.27 17.2617C277.047 18.0234 276.812 18.7266 276.566 19.3711C276.332 20.0156 276.098 20.5781 275.863 21.0586C275.629 21.5273 275.418 21.8789 275.23 22.1133C275.383 22.6523 275.564 23.1562 275.775 23.625C275.986 24.082 276.221 24.4863 276.479 24.8379C276.748 25.1777 277.035 25.4473 277.34 25.6465C277.645 25.8457 277.973 25.9453 278.324 25.9453C278.734 25.9453 279.139 25.7754 279.537 25.4355C279.947 25.084 280.322 24.6738 280.662 24.2051C281.014 23.7246 281.318 23.2441 281.576 22.7637C281.846 22.2715 282.039 21.8789 282.156 21.5859C282.273 21.3047 282.479 21.1641 282.771 21.1641C282.971 21.1641 283.129 21.2344 283.246 21.375C283.375 21.5156 283.439 21.668 283.439 21.832C283.439 21.9141 283.422 21.9961 283.387 22.0781C283.352 22.1602 283.264 22.3477 283.123 22.6406C282.994 22.9336 282.818 23.2734 282.596 23.6602C282.385 24.0469 282.133 24.457 281.84 24.8906C281.559 25.3125 281.236 25.6992 280.873 26.0508C280.521 26.4023 280.141 26.6953 279.73 26.9297C279.32 27.1641 278.887 27.2812 278.43 27.2812C277.621 27.2812 276.895 27.0176 276.25 26.4902C275.605 25.9629 275.055 25.2246 274.598 24.2754C274.152 23.3262 273.812 22.2012 273.578 20.9004C273.344 19.5996 273.227 18.1758 273.227 16.6289C273.227 16.2422 273.232 15.791 273.244 15.2754C273.256 14.748 273.279 14.1973 273.314 13.623C273.35 13.0371 273.402 12.4395 273.473 11.8301C273.543 11.209 273.637 10.6055 273.754 10.0195H267.443C267.256 10.0195 267.098 9.9668 266.969 9.86133C266.84 9.74414 266.775 9.5918 266.775 9.4043C266.775 9.2168 266.84 9.07031 266.969 8.96484C267.098 8.84766 267.256 8.78906 267.443 8.78906H274.053C274.17 8.36719 274.305 7.98047 274.457 7.62891C274.621 7.27734 274.803 6.97266 275.002 6.71484C275.213 6.45703 275.441 6.25781 275.688 6.11719C275.945 5.96484 276.227 5.88867 276.531 5.88867C276.824 5.88867 277.076 5.96484 277.287 6.11719C277.51 6.25781 277.697 6.45703 277.85 6.71484C278.002 6.97266 278.119 7.27734 278.201 7.62891C278.295 7.98047 278.365 8.36719 278.412 8.78906H287.395C287.582 8.78906 287.74 8.84766 287.869 8.96484C287.998 9.07031 288.062 9.2168 288.062 9.4043ZM274.826 20.3555C275.178 19.582 275.494 18.75 275.775 17.8594C276.068 16.957 276.314 16.0488 276.514 15.1348C276.725 14.2207 276.883 13.3242 276.988 12.4453C277.105 11.5664 277.164 10.7578 277.164 10.0195H275.09C274.926 10.7461 274.791 11.6484 274.686 12.7266C274.592 13.793 274.545 15.0938 274.545 16.6289C274.545 17.4844 274.568 18.2051 274.615 18.791C274.662 19.3652 274.732 19.8867 274.826 20.3555ZM276.461 7.20703C276.355 7.20703 276.203 7.32422 276.004 7.55859C275.805 7.78125 275.605 8.19141 275.406 8.78906H277.094C277.035 8.29688 276.947 7.91016 276.83 7.62891C276.725 7.34766 276.602 7.20703 276.461 7.20703ZM275.107 21.6211V21.6387V21.6211ZM284.336 25.0664C284.582 25.4062 284.898 25.6816 285.285 25.8926C285.672 26.0918 286.146 26.1914 286.709 26.1914C287.283 26.1914 287.805 26.0566 288.273 25.7871C288.742 25.5059 289.17 25.1426 289.557 24.6973C289.943 24.252 290.289 23.7539 290.594 23.2031C290.898 22.6523 291.174 22.1016 291.42 21.5508C291.479 21.4219 291.561 21.3281 291.666 21.2695C291.771 21.1992 291.889 21.1641 292.018 21.1641C292.217 21.1641 292.375 21.2344 292.492 21.375C292.621 21.5156 292.686 21.668 292.686 21.832C292.686 21.8906 292.68 21.9434 292.668 21.9902C292.656 22.0254 292.639 22.0664 292.615 22.1133C291.807 23.8945 290.922 25.2363 289.961 26.1387C289.012 27.041 287.934 27.5039 286.727 27.5273C285.953 27.5273 285.285 27.375 284.723 27.0703C284.16 26.7773 283.697 26.3965 283.334 25.9277C282.971 25.4473 282.701 24.9082 282.525 24.3105C282.35 23.7129 282.262 23.1152 282.262 22.5176C282.262 21.9199 282.332 21.3691 282.473 20.8652C282.625 20.3613 282.836 19.9219 283.105 19.5469C283.387 19.1719 283.715 18.8789 284.09 18.668C284.477 18.457 284.898 18.3516 285.355 18.3516C285.625 18.3516 285.889 18.4102 286.146 18.5273C286.416 18.6328 286.656 18.791 286.867 19.002C287.078 19.2012 287.248 19.4473 287.377 19.7402C287.506 20.0332 287.57 20.3672 287.57 20.7422C287.57 21.2227 287.488 21.6738 287.324 22.0957C287.16 22.5176 286.932 22.9102 286.639 23.2734C286.357 23.6367 286.018 23.9707 285.619 24.2754C285.221 24.5801 284.793 24.8438 284.336 25.0664ZM283.809 23.9238C284.172 23.7715 284.5 23.5781 284.793 23.3438C285.098 23.1094 285.355 22.8516 285.566 22.5703C285.777 22.2891 285.941 21.9961 286.059 21.6914C286.176 21.375 286.234 21.0586 286.234 20.7422C286.234 20.3906 286.146 20.127 285.971 19.9512C285.795 19.7637 285.59 19.6699 285.355 19.6699C285.039 19.6699 284.77 19.7578 284.547 19.9336C284.324 20.1094 284.143 20.3379 284.002 20.6191C283.861 20.9004 283.756 21.2168 283.686 21.5684C283.627 21.9082 283.598 22.248 283.598 22.5879C283.598 22.7988 283.615 23.0215 283.65 23.2559C283.697 23.4902 283.75 23.7129 283.809 23.9238ZM293.389 20.4961C293.318 20.6836 293.23 20.8945 293.125 21.1289C293.031 21.3633 292.92 21.6094 292.791 21.8672C292.686 22.0664 292.574 22.2246 292.457 22.3418C292.352 22.4473 292.211 22.5 292.035 22.5C291.836 22.5 291.678 22.4414 291.561 22.3242C291.443 22.1953 291.385 22.0488 291.385 21.8848C291.385 21.8262 291.391 21.7793 291.402 21.7441C291.414 21.6973 291.443 21.627 291.49 21.5332C291.795 20.9473 292.018 20.4375 292.158 20.0039C292.311 19.5586 292.434 19.0957 292.527 18.6152C292.445 18.3457 292.387 18.1172 292.352 17.9297C292.316 17.7422 292.299 17.5488 292.299 17.3496C292.299 16.9629 292.381 16.6523 292.545 16.418C292.709 16.1719 292.938 16.0488 293.23 16.0488C293.5 16.0488 293.711 16.166 293.863 16.4004C294.027 16.6348 294.109 16.9219 294.109 17.2617C294.109 17.4492 294.092 17.6367 294.057 17.8242C294.021 18.0117 293.975 18.2461 293.916 18.5273C294.186 19.1953 294.455 19.7871 294.725 20.3027C294.994 20.8184 295.234 21.293 295.445 21.7266C295.656 22.1484 295.826 22.5469 295.955 22.9219C296.096 23.2969 296.166 23.6719 296.166 24.0469C296.166 24.5391 296.066 25.0078 295.867 25.4531C295.668 25.8984 295.34 26.2734 294.883 26.5781C294.941 26.5898 295 26.5957 295.059 26.5957C295.117 26.5957 295.176 26.5957 295.234 26.5957C295.902 26.5957 296.518 26.4434 297.08 26.1387C297.643 25.834 298.146 25.4414 298.592 24.9609C299.049 24.4688 299.453 23.9297 299.805 23.3438C300.156 22.7461 300.461 22.1543 300.719 21.5684C300.836 21.2988 301 21.1641 301.211 21.1641C301.41 21.1641 301.562 21.2344 301.668 21.375C301.785 21.5156 301.844 21.668 301.844 21.832C301.844 21.9258 301.826 22.0137 301.791 22.0957C301.662 22.4121 301.492 22.7754 301.281 23.1855C301.082 23.584 300.836 24 300.543 24.4336C300.262 24.8555 299.934 25.2715 299.559 25.6816C299.184 26.0918 298.762 26.4609 298.293 26.7891C297.836 27.1055 297.332 27.3574 296.781 27.5449C296.23 27.7441 295.627 27.8438 294.971 27.8438C294.186 27.8438 293.453 27.7031 292.773 27.4219C292.105 27.1523 291.561 26.7012 291.139 26.0684C291.068 25.9629 291.033 25.8516 291.033 25.7344C291.033 25.5586 291.098 25.4062 291.227 25.2773C291.367 25.1367 291.525 25.0664 291.701 25.0664C291.889 25.0664 292.047 25.1309 292.176 25.2598C292.188 25.2832 292.229 25.3242 292.299 25.3828C292.369 25.4297 292.451 25.4883 292.545 25.5586C292.65 25.6172 292.768 25.6699 292.896 25.7168C293.037 25.7637 293.178 25.7871 293.318 25.7871C293.6 25.7871 293.834 25.7285 294.021 25.6113C294.221 25.4941 294.379 25.3535 294.496 25.1895C294.613 25.0137 294.695 24.832 294.742 24.6445C294.801 24.4453 294.83 24.2754 294.83 24.1348C294.83 23.8418 294.783 23.5488 294.689 23.2559C294.596 22.9629 294.473 22.6699 294.32 22.377C294.18 22.084 294.021 21.7852 293.846 21.4805C293.682 21.1641 293.529 20.8359 293.389 20.4961Z" fill="black"/>
</g>
<defs>
<filter id="filter0_d" x="0.527344" y="0.0878906" width="305.316" height="53.9668" filterUnits="userSpaceOnUse" color-interpolation-filters="sRGB">
<feFlood flood-opacity="0" result="BackgroundImageFix"/>
<feColorMatrix in="SourceAlpha" type="matrix" values="0 0 0 0 0 0 0 0 0 0 0 0 0 0 0 0 0 0 127 0" result="hardAlpha"/>
<feOffset dy="4"/>
<feGaussianBlur stdDeviation="2"/>
<feComposite in2="hardAlpha" operator="out"/>
<feColorMatrix type="matrix" values="0 0 0 0 0 0 0 0 0 0 0 0 0 0 0 0 0 0 0.25 0"/>
<feBlend mode="normal" in2="BackgroundImageFix" result="effect1_dropShadow"/>
<feBlend mode="normal" in="SourceGraphic" in2="effect1_dropShadow" result="shape"/>
</filter>
</defs>
</svg>
