<svg width="26" height="25" viewBox="0 0 26 25" fill="none" xmlns="http://www.w3.org/2000/svg">
<g filter="url(#filter0_d)">
<path d="M11.0169 10.7501V13.75C11.0169 14.3468 11.273 14.9191 11.729 15.341C12.185 15.763 12.8034 16 13.4483 16L16.6902 9.25012V1.00027H7.54806C7.15715 0.996182 6.77781 1.12296 6.47994 1.35726C6.18207 1.59155 5.98574 1.91757 5.92712 2.27525L4.80868 9.02513C4.77341 9.2401 4.78908 9.45961 4.8546 9.66843C4.92011 9.87724 5.0339 10.0704 5.18809 10.2345C5.34228 10.3986 5.53317 10.5296 5.74755 10.6187C5.96192 10.7077 6.19465 10.7526 6.42962 10.7501H11.0169ZM16.6902 1.00027H18.8541C19.3128 0.992764 19.7585 1.14137 20.1066 1.41788C20.4547 1.69439 20.681 2.07955 20.7425 2.50024V7.75015C20.681 8.17085 20.4547 8.55601 20.1066 8.83251C19.7585 9.10902 19.3128 9.25763 18.8541 9.25012H16.6902" fill="#F8BD19"/>
<path d="M16.6902 1.00027H18.8541C19.3128 0.992764 19.7585 1.14137 20.1066 1.41788C20.4547 1.69439 20.681 2.07955 20.7425 2.50024V7.75015C20.681 8.17085 20.4547 8.55601 20.1066 8.83251C19.7585 9.10902 19.3128 9.25763 18.8541 9.25012H16.6902M11.0169 10.7501V13.75C11.0169 14.3468 11.273 14.9191 11.729 15.341C12.185 15.763 12.8034 16 13.4483 16L16.6902 9.25012V1.00027H7.54806C7.15715 0.996182 6.77781 1.12296 6.47994 1.35726C6.18207 1.59155 5.98574 1.91757 5.92712 2.27525L4.80868 9.02513C4.77341 9.2401 4.78908 9.45961 4.8546 9.66843C4.92011 9.87724 5.0339 10.0704 5.18809 10.2345C5.34228 10.3986 5.53317 10.5296 5.74755 10.6187C5.96192 10.7077 6.19465 10.7526 6.42962 10.7501H11.0169Z" stroke="white" stroke-linecap="round" stroke-linejoin="round"/>
</g>
<defs>
<filter id="filter0_d" x="0.290321" y="0.5" width="24.9522" height="24" filterUnits="userSpaceOnUse" color-interpolation-filters="sRGB">
<feFlood flood-opacity="0" result="BackgroundImageFix"/>
<feColorMatrix in="SourceAlpha" type="matrix" values="0 0 0 0 0 0 0 0 0 0 0 0 0 0 0 0 0 0 127 0" result="hardAlpha"/>
<feOffset dy="4"/>
<feGaussianBlur stdDeviation="2"/>
<feComposite in2="hardAlpha" operator="out"/>
<feColorMatrix type="matrix" values="0 0 0 0 0 0 0 0 0 0 0 0 0 0 0 0 0 0 0.25 0"/>
<feBlend mode="normal" in2="BackgroundImageFix" result="effect1_dropShadow"/>
<feBlend mode="normal" in="SourceGraphic" in2="effect1_dropShadow" result="shape"/>
</filter>
</defs>
</svg>
