<svg width="23" height="20" viewBox="0 0 23 20" fill="none" xmlns="http://www.w3.org/2000/svg">
<g clip-path="url(#clip0)">
<g filter="url(#filter0_d)">
<path d="M19.3801 3.84166C18.9201 3.41583 18.374 3.07803 17.773 2.84757C17.1719 2.6171 16.5276 2.49847 15.877 2.49847C15.2264 2.49847 14.5821 2.6171 13.9811 2.84757C13.38 3.07803 12.8339 3.41583 12.3739 3.84166L11.4193 4.725L10.4648 3.84166C9.5357 2.98192 8.2756 2.49892 6.96169 2.49892C5.64777 2.49892 4.38767 2.98192 3.4586 3.84166C2.52952 4.70141 2.00757 5.86747 2.00757 7.08333C2.00757 8.29919 2.52952 9.46525 3.4586 10.325L4.41317 11.2083L11.4193 17.6917L18.4255 11.2083L19.3801 10.325C19.8403 9.89937 20.2053 9.39401 20.4544 8.83779C20.7034 8.28158 20.8316 7.6854 20.8316 7.08333C20.8316 6.48126 20.7034 5.88508 20.4544 5.32887C20.2053 4.77265 19.8403 4.26729 19.3801 3.84166V3.84166Z" fill="#F8BD19"/>
<path d="M19.3801 3.84166C18.9201 3.41583 18.374 3.07803 17.773 2.84757C17.1719 2.6171 16.5276 2.49847 15.877 2.49847C15.2264 2.49847 14.5821 2.6171 13.9811 2.84757C13.38 3.07803 12.8339 3.41583 12.3739 3.84166L11.4193 4.725L10.4648 3.84166C9.5357 2.98192 8.2756 2.49892 6.96169 2.49892C5.64777 2.49892 4.38767 2.98192 3.4586 3.84166C2.52952 4.70141 2.00757 5.86747 2.00757 7.08333C2.00757 8.29919 2.52952 9.46525 3.4586 10.325L4.41317 11.2083L11.4193 17.6917L18.4255 11.2083L19.3801 10.325C19.8403 9.89937 20.2053 9.39401 20.4544 8.83779C20.7034 8.28158 20.8316 7.6854 20.8316 7.08333C20.8316 6.48126 20.7034 5.88508 20.4544 5.32887C20.2053 4.77265 19.8403 4.26729 19.3801 3.84166V3.84166Z" stroke="white" stroke-linecap="round" stroke-linejoin="round"/>
</g>
</g>
<defs>
<filter id="filter0_d" x="-2.49243" y="1.99847" width="27.824" height="24.1932" filterUnits="userSpaceOnUse" color-interpolation-filters="sRGB">
<feFlood flood-opacity="0" result="BackgroundImageFix"/>
<feColorMatrix in="SourceAlpha" type="matrix" values="0 0 0 0 0 0 0 0 0 0 0 0 0 0 0 0 0 0 127 0" result="hardAlpha"/>
<feOffset dy="4"/>
<feGaussianBlur stdDeviation="2"/>
<feComposite in2="hardAlpha" operator="out"/>
<feColorMatrix type="matrix" values="0 0 0 0 0 0 0 0 0 0 0 0 0 0 0 0 0 0 0.25 0"/>
<feBlend mode="normal" in2="BackgroundImageFix" result="effect1_dropShadow"/>
<feBlend mode="normal" in="SourceGraphic" in2="effect1_dropShadow" result="shape"/>
</filter>
<clipPath id="clip0">
<rect width="21.6129" height="20" fill="white" transform="translate(0.6129)"/>
</clipPath>
</defs>
</svg>
